<?xml version="1.0" encoding="UTF-8"?><svg id="a" xmlns="http://www.w3.org/2000/svg" viewBox="0 0 786.74 372.14"><defs><style>.b{fill:#f7c30f;}.c{fill:#a27f05;}.d{fill:#372b02;}.e{fill:#c59a06;}.f{fill:#604b03;}.g{fill-rule:evenodd;}.g,.h{fill:#534001;}.i{fill:#866904;}.j{fill:#201901;}.k{fill:#e5b307;}</style></defs><polygon class="j" points="81.54 93.44 17.86 93.44 17.86 136.64 66.01 136.64 66.01 151.3 17.86 151.3 17.86 210.7 0 210.7 0 78.78 81.54 78.78 81.54 93.44 81.54 93.44"/><path class="d" d="M177.43,210.56h-18.36l-27.54-56.97h-19.89v56.97h-17.6V78.92h38.26c12.24,0,22.19,2.95,29.84,8.85,7.65,5.9,11.48,15.52,11.48,28.87,0,10.26-2.55,18.22-7.65,23.86-5.1,5.65-10.97,9.24-17.6,10.78l29.07,59.28h0ZM156,116.64c0-7.19-2.17-12.83-6.5-16.94-4.34-4.11-11.35-6.16-21.04-6.16h-16.83v45.42h21.42c6.12,0,11.48-1.67,16.07-5,4.59-3.34,6.89-9.11,6.89-17.32h0Z"/><path class="f" d="M310.53,162.02c0,8.23-1.27,15.68-3.82,22.36-2.55,6.67-6.28,12.35-11.21,17.04-4.93,4.69-10.96,8.31-18.1,10.86-7.14,2.55-15.35,3.83-24.62,3.83-10.19,0-18.83-1.22-25.93-3.66-7.1-2.44-12.88-5.89-17.35-10.35-4.47-4.46-7.73-9.82-9.77-16.07-2.05-6.25-3.07-13.23-3.07-20.93v-100.51h18.49c0,33.12,1.12,65.79,1.12,98.91,0,5.87,1.5,11.02,2.71,15.44,1.21,4.42,4.99,8.12,7.74,11.09,2.76,2.97,6.33,5.22,10.71,6.75,4.38,1.52,9.75,2.74,16.1,2.74,11.86,0,20.61-3.57,26.24-9.82,5.64-6.25,10.47-13.49,10.47-26.41l.45-98.68h19.83v97.42h0Z"/><polygon class="i" points="410.16 211.18 392.38 211.18 392.38 149.35 348.33 149.35 348.33 211.18 330.56 211.18 330.56 79.02 348.33 79.02 348.33 134.66 392.38 134.66 392.38 79.02 410.16 79.02 410.16 211.18 410.16 211.18"/><polygon class="e" points="598.92 211.18 581.14 211.18 581.14 149.35 537.09 149.35 537.09 211.18 519.32 211.18 519.32 79.02 537.09 79.02 537.09 134.66 581.14 134.66 581.14 79.02 598.92 79.02 598.92 211.18 598.92 211.18"/><path class="c" d="M508.55,158.18c-.52,19.57-4.64,33.47-12.36,41.71-7.72,8.24-16.99,12.36-27.81,12.36-12.36,0-22.92-5.02-31.67-15.06-8.75-10.04-13.13-26.14-13.13-48.28,0-24.2,4.25-42.23,12.75-54.07,8.5-11.84,19.44-17.77,32.83-17.77,11.33,0,20.73,4.25,28.2,12.75,7.47,8.5,10.94,20.47,10.43,35.92h-16.99c0-11.33-1.8-19.83-5.41-25.49-3.6-5.66-9.01-8.5-16.22-8.5-8.24,0-14.81,4.25-19.7,12.75-4.89,8.5-7.34,22.79-7.34,42.87,0,18.54,2.45,31.54,7.34,39.01,4.89,7.47,11.2,11.2,18.93,11.2,5.66,0,10.81-2.7,15.45-8.11,4.63-5.41,6.95-15.84,6.95-31.29h17.77Z"/><polygon class="k" points="694.45 210.85 615.6 210.85 615.6 78.66 690.59 78.66 690.59 93.35 633.38 93.35 633.38 134.32 685.95 134.32 685.95 149.01 633.38 149.01 633.38 196.16 694.45 196.16 694.45 210.85 694.45 210.85"/><polygon class="b" points="786.74 211.22 767.6 211.22 725.51 114.92 724.75 114.92 724.75 211.22 707.14 211.22 707.14 78.42 726.28 78.42 768.37 174.72 769.13 174.72 769.13 78.42 786.74 78.42 786.74 211.22 786.74 211.22"/><path class="g" d="M211.91,5.03c2.59-1.05,5.21,1.21,5.84,2.78.64,1.57,1.24,5.42-2.01,6.63-3.36,1.25-5.33-1.03-5.97-2.6-.64-1.57-1.47-5.35,2.14-6.81h0Z"/><path class="g" d="M227.34.02c3.94.24,5.9,4.72,5.75,7.11s-1.73,7.68-6.62,7.23c-5.04-.46-6.16-4.57-6.02-6.96.15-2.39,1.4-7.71,6.89-7.38h0Z"/><path class="g" d="M202.94,12.14c2.29-1.33,5.05.44,5.86,1.83.81,1.39,1.89,4.93-1.01,6.5-2.99,1.62-5.15-.26-5.95-1.65-.81-1.39-2.09-4.83,1.1-6.69h0Z"/><path class="g" d="M199.33,21.87c1.73-1,3.8.33,4.41,1.38.61,1.05,1.43,3.71-.76,4.9-2.25,1.22-3.87-.2-4.48-1.24-.61-1.05-1.58-3.64.83-5.03h0Z"/><path class="g" d="M215.26,19.18c4.97-3.07,8.33-3.28,9.93-2.97,5.24,1.02,6.53,4.64,8,8,1.47,3.36,1.61,9.07.83,12.14-.69,2.7-3.1,4.9-5.52,6.28-2.59,1.47-7.02,2.99-10,2.55-2.98-.44-5.76-3.01-7.86-5.17-2.1-2.16-4.29-5.37-4.76-7.79-.45-2.3.56-4.86,1.93-6.76,1.56-2.17,5.84-5.28,7.45-6.28h0Z"/><path class="g" d="M229.81,46.63c2.23-1.4,6.33-3.23,8.28-1.52,1.94,1.71,6.06,6.92,3.38,11.79-1.4,2.54-2.86,4.77-8.83,4.9-2.85.06-7.74-4.44-7.93-8.28-.13-2.57,2.87-5.49,5.1-6.9h0Z"/><path class="g" d="M274.32,21.47c-2.78-.31-4.68,2.58-4.86,4.27-.19,1.68.28,5.56,3.75,5.83,3.57.28,4.84-2.45,5.03-4.13.19-1.68-.04-5.54-3.91-5.97h0Z"/><path class="g" d="M258.11,20.85c-3.73,1.31-4.39,6.15-3.59,8.41.79,2.26,3.75,6.92,8.34,5.15,4.73-1.82,4.68-6.08,3.89-8.34-.79-2.26-3.44-7.04-8.64-5.22h0Z"/><path class="g" d="M284.89,25.86c-2.57-.66-4.74,1.8-5.14,3.36-.4,1.56-.48,5.26,2.74,5.98,3.32.74,4.88-1.65,5.28-3.21.4-1.56.7-5.22-2.88-6.14h0Z"/><path class="g" d="M291.02,34.24c-1.94-.5-3.57,1.36-3.87,2.53-.3,1.17-.36,3.96,2.06,4.5,2.5.56,3.67-1.24,3.97-2.42.3-1.17.53-3.93-2.17-4.62h0Z"/><path class="g" d="M274.96,36c-5.61-1.6-8.9-.88-10.36-.15-4.77,2.41-5.02,6.25-5.52,9.88s.92,9.16,2.51,11.9c1.4,2.41,4.31,3.87,7.02,4.53,2.89.71,7.57.96,10.32-.27,2.75-1.23,4.72-4.47,6.16-7.12,1.44-2.65,2.66-6.33,2.45-8.79-.2-2.33-1.86-4.52-3.7-5.98-2.1-1.66-7.05-3.49-8.88-4.01h0Z"/><path class="g" d="M268.43,66.37c-2.53-.74-6.97-1.38-8.38.8s-3.94,8.31-.04,12.27c2.04,2.07,4.05,3.81,9.83,2.31,2.76-.72,6.23-6.38,5.38-10.12-.57-2.51-4.26-4.5-6.79-5.24h0Z"/><path class="b" d="M183.42,350.58c20.9,7.38,7.75,20.43,7.75,20.43-6.15,3.63-20.84-1.8-32.57-12.05-1.91-1.66-10.81-7.99-13.15-10.33-3.74,3.74-7.72,6.67-11.93,8.77-4.21,2.1-9.12,3.16-14.73,3.16-9.36,0-17.42-2.81-24.21-8.42-6.78-5.61-10.17-14.27-10.17-25.96,0-7.48,1.99-13.68,5.96-18.59,3.98-4.91,8.77-9.47,14.38-13.68-2.34-5.15-4.21-10.29-5.61-15.44-1.4-5.15-2.1-9.82-2.1-14.03,0-8.42,2.46-14.97,7.37-19.65,4.91-4.68,10.88-7.02,17.89-7.02,6.08,0,11.23,1.99,15.44,5.96,4.21,3.98,6.31,9.71,6.31,17.19,0,8.89-2.46,16.02-7.37,21.4-4.91,5.38-10.41,9.94-16.49,13.68,3.27,5.61,6.67,10.88,10.17,15.79,3.51,4.91,7.6,9.94,12.28,15.09,1.4-3.27,2.34-6.43,2.81-9.47.47-3.04.7-6.9.7-11.58,0,0,.41-20.03,10.55-10.22,4.74,4.58,4.86,11.6,4.86,11.6,0,6.08-1.96,10.2-3.13,15.11-1.17,4.91-2.92,9.47-5.26,13.68,1.4,1.4,3.39,3.04,5.96,4.91,2.57,1.87,17.19,7.16,24.29,9.66h0ZM130.71,260.93c0-3.27-.82-5.85-2.46-7.72-1.64-1.87-3.86-2.81-6.67-2.81s-5.38,1.17-7.72,3.51-3.51,5.61-3.51,9.82c0,3.27.35,6.67,1.05,10.17.7,3.51,1.99,7.37,3.86,11.58,3.74-1.87,7.25-4.79,10.52-8.77,3.27-3.98,4.91-9.24,4.91-15.79h0ZM135.62,339.51c-6.08-6.55-11.23-12.63-15.44-18.24-4.21-5.61-7.72-11.23-10.52-16.84-3.74,2.81-6.43,5.96-8.07,9.47-1.64,3.51-2.46,7.84-2.46,12.98,0,7.02,2.1,12.28,6.31,15.79,4.21,3.51,9.12,5.26,14.73,5.26,3.27,0,6.08-.7,8.42-2.1,2.34-1.4,4.68-3.51,7.02-6.32h0Z"/><polygon class="k" points="225.71 330.38 213.38 330.38 186.25 269.22 185.76 269.22 185.76 330.38 174.41 330.38 174.41 246.03 186.74 246.03 213.87 307.2 214.37 307.2 214.37 246.03 225.71 246.03 225.71 330.38 225.71 330.38"/><polygon class="e" points="289.83 330.38 239.52 330.38 239.52 246.03 287.37 246.03 287.37 255.41 250.87 255.41 250.87 281.55 284.41 281.55 284.41 290.92 250.87 290.92 250.87 321.01 289.83 321.01 289.83 330.38 289.83 330.38"/><path class="c" d="M353.96,287.96c0,15.46-2.38,26.55-7.15,33.29-4.77,6.74-11.43,10.11-19.98,10.11s-15.29-3.37-20.22-10.11c-4.93-6.74-7.4-17.84-7.4-33.29s2.47-26.47,7.4-33.05c4.93-6.58,11.67-9.87,20.22-9.87s15.21,3.29,19.98,9.87c4.77,6.58,7.15,17.59,7.15,33.05h0ZM342.12,287.96c0-13.81-1.48-22.85-4.44-27.13-2.96-4.27-6.58-6.41-10.85-6.41s-7.97,2.14-11.1,6.41c-3.12,4.27-4.69,13.32-4.69,27.13s1.56,22.94,4.69,27.38c3.12,4.44,6.82,6.66,11.1,6.66s7.89-2.22,10.85-6.66c2.96-4.44,4.44-13.56,4.44-27.38h0Z"/><polygon class="i" points="419.07 330.38 406.24 330.38 383.55 288.45 375.66 298.81 375.66 330.38 364.32 330.38 364.32 246.03 375.66 246.03 375.66 282.54 403.78 246.03 417.09 246.03 390.95 279.08 419.07 330.38 419.07 330.38"/><polygon class="i" points="442.87 330.38 431.52 330.38 431.52 246.03 442.87 246.03 442.87 330.38 442.87 330.38"/><polygon class="f" points="509.81 330.38 497.48 330.38 470.35 269.22 469.85 269.22 469.85 330.38 458.51 330.38 458.51 246.03 470.84 246.03 497.97 307.2 498.46 307.2 498.46 246.03 509.81 246.03 509.81 330.38 509.81 330.38"/><path class="h" d="M574.42,288.45c0,15.13-3.21,25.9-9.62,32.31-6.41,6.41-15.04,9.62-25.9,9.62h-16.77v-84.35h16.77c12.17,0,21.13,3.29,26.88,9.87,5.75,6.58,8.63,17.43,8.63,32.55h0ZM562.59,288.45c0-12.17-1.97-20.72-5.92-25.65-3.95-4.93-9.87-7.4-17.76-7.4h-5.43v65.6h5.43c7.89,0,13.81-2.38,17.76-7.15,3.95-4.77,5.92-13.24,5.92-25.4h0Z"/><polygon class="d" points="637.07 330.38 586.76 330.38 586.76 246.03 634.6 246.03 634.6 255.41 598.1 255.41 598.1 281.55 631.64 281.55 631.64 290.92 598.1 290.92 598.1 321.01 637.07 321.01 637.07 330.38 637.07 330.38"/><path class="j" d="M702.18,330.38h-11.84l-17.76-36.5h-12.82v36.5h-11.34v-84.35h24.66c7.89,0,14.3,1.89,19.24,5.67,4.93,3.78,7.4,9.95,7.4,18.5,0,6.58-1.64,11.67-4.93,15.29-3.29,3.62-7.07,5.92-11.35,6.91l18.74,37.98h0ZM688.37,270.2c0-4.6-1.4-8.22-4.19-10.85-2.8-2.63-7.32-3.95-13.56-3.95h-10.85v29.1h13.81c3.95,0,7.4-1.07,10.36-3.21,2.96-2.14,4.44-5.84,4.44-11.1h0Z"/></svg>